<svg width="200" height="63" viewBox="0 0 200 63" fill="none" xmlns="http://www.w3.org/2000/svg">
<rect x="0.5" y="0.5" width="61.963" height="61.963" fill="white"/>
<rect x="0.5" y="0.5" width="61.963" height="61.963" stroke="#0C1929"/>
<rect x="61.611" y="0.5" width="137.889" height="61.963" fill="white"/>
<rect x="61.611" y="0.5" width="137.889" height="61.963" stroke="#0C1929"/>
<path d="M195.565 49.6667V52.4075H191.453V59.2593H188.676V52.4075H175.676V50L185.268 33.3334H188.194L178.898 49.6667H188.676V42.7037H191.453V49.6667H195.565Z" fill="#0C1929"/>
<path d="M173.667 56.5554V59.2591H155.111L155.148 56.8517L165.296 46.3332C166.444 45.185 167.333 44.0369 168 42.8887C168.667 41.7406 169 40.7776 169 39.9258C169 38.6665 168.519 37.6665 167.556 36.9258C166.593 36.2221 165.259 35.8517 163.556 35.8517C162.333 35.8517 161.037 36.148 159.741 36.7035C158.444 37.2591 157.259 38.0369 156.185 39.0369L154.889 36.7776C156.185 35.6295 157.63 34.7406 159.222 34.111C160.778 33.4813 162.333 33.185 163.889 33.185C166.37 33.185 168.37 33.7406 169.852 34.8887C171.333 36.0369 172.074 37.5924 172.074 39.5184C172.074 40.7035 171.667 41.9998 170.815 43.4443C169.963 44.8887 168.815 46.4073 167.296 47.9628L158.963 56.5554H173.667Z" fill="#0C1929"/>
<path d="M188.178 6.8649C186.882 6.53156 185.696 6.34638 184.585 6.34638C182.919 6.34638 181.585 6.67971 180.585 7.30934C179.585 7.97601 179.067 8.86489 179.067 9.97601C179.067 10.976 179.363 11.7538 179.919 12.3834C180.474 13.013 181.178 13.4945 182.03 13.8279C182.882 14.1982 184.03 14.6056 185.474 15.0501C187.252 15.6056 188.696 16.1612 189.771 16.6427C190.845 17.1242 191.734 17.8649 192.511 18.8279C193.252 19.8279 193.622 21.0871 193.622 22.6797C193.622 24.1242 193.252 25.3834 192.474 26.4575C191.696 27.5316 190.585 28.3834 189.178 28.976C187.734 29.5686 186.104 29.8649 184.252 29.8649C182.4 29.8649 180.585 29.4945 178.845 28.7538C177.104 28.0501 175.585 27.0871 174.326 25.8649L175.659 23.3093C176.845 24.4575 178.215 25.3834 179.771 26.013C181.289 26.6427 182.808 26.976 184.289 26.976C186.178 26.976 187.659 26.6056 188.734 25.8649C189.808 25.1612 190.363 24.1612 190.363 22.8649C190.363 21.8649 190.067 21.013 189.511 20.3834C188.956 19.7538 188.252 19.2353 187.4 18.8649C186.548 18.5316 185.4 18.1242 183.882 17.6427C182.141 17.1242 180.771 16.6056 179.696 16.1242C178.622 15.6427 177.696 14.9019 176.956 13.939C176.178 12.976 175.808 11.7167 175.808 10.1612C175.808 8.82786 176.178 7.64267 176.919 6.64267C177.659 5.64267 178.696 4.82786 180.067 4.2723C181.437 3.71675 182.993 3.45749 184.771 3.45749C186.252 3.45749 187.734 3.67971 189.178 4.08712C190.622 4.53156 191.919 5.12415 192.993 5.8649L191.734 8.49452C190.622 7.79082 189.437 7.23527 188.178 6.8649Z" fill="#0C1929"/>
<path d="M157.933 3.71671H160.896V26.9019H172.267V29.6426H157.933V3.71671Z" fill="#0C1929"/>
<path d="M150.646 29.6426L147.72 23.013H133.608L130.72 29.6426H127.571L139.201 3.71671H142.275L153.868 29.6426H150.646ZM134.831 20.2723H146.534L140.646 6.93893L134.831 20.2723Z" fill="#0C1929"/>
<path d="M107.22 3.70358H124.704V6.44432H110.165V15.148H124.702V17.8517H110.165V26.8888H124.702V29.6295H107.22V3.70358Z" fill="#0C1929"/>
<path d="M95.2592 5.42041C97.2962 6.56856 98.8888 8.12411 100.074 10.0871C101.222 12.05 101.815 14.2723 101.815 16.6797C101.815 19.0871 101.222 21.3093 100.074 23.2723C98.8888 25.2352 97.2592 26.7908 95.2222 27.9389C93.1851 29.0871 90.8888 29.6426 88.3703 29.6426H77.9999V3.71671H88.4814C90.9629 3.71671 93.2222 4.27226 95.2592 5.42041ZM93.7407 25.5686C95.2962 24.6797 96.5185 23.4574 97.4444 21.9019C98.3703 20.3463 98.8148 18.6056 98.8148 16.7167C98.8148 14.7908 98.3703 13.05 97.4444 11.4945C96.5185 9.93893 95.2592 8.71671 93.6666 7.79078C92.074 6.90189 90.3333 6.45745 88.4073 6.45745H80.9629V26.9019H88.5185C90.4073 26.9019 92.1481 26.4574 93.7407 25.5686Z" fill="#0C1929"/>
<path fill-rule="evenodd" clip-rule="evenodd" d="M150 34.272H75.9259C74.3918 34.272 73.1481 33.0284 73.1481 31.4942V3.59771L75 3.59772V31.4942C75 32.0056 75.4145 32.4202 75.9259 32.4202H150V34.272Z" fill="#9C1B22"/>
<path fill-rule="evenodd" clip-rule="evenodd" d="M146.296 37.9757L72.2223 37.9757C70.6881 37.9757 69.4445 36.732 69.4445 35.1979V3.5995L71.2963 3.59949V35.1979C71.2963 35.7093 71.7109 36.1238 72.2223 36.1238L146.296 36.1238V37.9757Z" fill="#9C1B22"/>
<path fill-rule="evenodd" clip-rule="evenodd" d="M150 41.6794L68.5185 41.6794C66.9844 41.6794 65.7407 40.4358 65.7407 38.9016V3.59772L67.5926 3.59772V38.9016C67.5926 39.413 68.0072 39.8276 68.5185 39.8276L150 39.8276V41.6794Z" fill="#9C1B22"/>
<path d="M59.6105 53.7037C59.6105 56.772 57.1232 59.2593 54.055 59.2593C50.9867 59.2593 48.4994 56.772 48.4994 53.7037C48.4994 50.6355 50.9867 48.1482 54.055 48.1482C57.1232 48.1482 59.6105 50.6355 59.6105 53.7037Z" fill="#9C1B22"/>
<path d="M76.91 53.7037C76.91 56.772 74.4227 59.2593 71.3544 59.2593C68.2862 59.2593 65.7989 56.772 65.7989 53.7037C65.7989 50.6355 68.2862 48.1482 71.3544 48.1482C74.4227 48.1482 76.91 50.6355 76.91 53.7037Z" fill="#9C1B22"/>
<path d="M94.4444 53.8314C94.4444 56.8997 91.9571 59.387 88.8889 59.387C85.8206 59.387 83.3333 56.8997 83.3333 53.8314C83.3333 50.7632 85.8206 48.2758 88.8889 48.2758C91.9571 48.2758 94.4444 50.7632 94.4444 53.8314Z" fill="#9C1B22"/>
<path d="M31.8327 33.3333H34.7957V59.2593H31.8327V33.3333Z" fill="#0C1929"/>
<path d="M2.20309 33.3333H26.2772V36.0741H16.0109V59.2593H12.4245V36.0741H2.20309V33.3333Z" fill="#0C1929"/>
<path d="M42.0179 3.70367H59.5024V6.44441H44.9627V15.1481H59.5V17.8518H44.9627V26.8889H59.5V29.6296H42.0179V3.70367Z" fill="#0C1929"/>
<path d="M31.8327 3.70367H34.7957V29.6296H31.8327V3.70367Z" fill="#0C1929"/>
<path d="M19.6845 5.40738C21.7216 6.55553 23.3142 8.11108 24.4994 10.074C25.6475 12.037 26.2401 14.2592 26.2401 16.6666C26.2401 19.074 25.6475 21.2963 24.4994 23.2592C23.3142 25.2222 21.6845 26.7778 19.6475 27.9259C17.6105 29.074 15.3142 29.6296 12.7957 29.6296H2.42529V3.70367H12.9068C15.3882 3.70367 17.6475 4.25923 19.6845 5.40738ZM18.166 25.5555C19.7216 24.6666 20.9438 23.4444 21.8697 21.8889C22.7957 20.3333 23.2401 18.5926 23.2401 16.7037C23.2401 14.7778 22.7957 13.037 21.8697 11.4815C20.9438 9.9259 19.6845 8.70368 18.092 7.77775C16.4994 6.88886 14.7586 6.44442 12.8327 6.44442H5.38825V26.8889H12.9438C14.8327 26.8889 16.5734 26.4444 18.166 25.5555Z" fill="#0C1929"/>
</svg>
